{
    "asset": {
        "generator": "FBX2glTF v0.9.7",
        "version": "2.0"
    },
    "scene": 0,
    "buffers": [
        {
            "byteLength": 18718208,
            "uri": "buffer.bin"
        }
    ],
    "bufferViews": [
        {
            "buffer": 0,
            "byteLength": 1920,
            "byteOffset": 0
        },
        {
            "buffer": 0,
            "byteLength": 5760,
            "byteOffset": 1920
        },
        {
            "buffer": 0,
            "byteLength": 5760,
            "byteOffset": 7680
        },
        {
            "buffer": 0,
            "byteLength": 5760,
            "byteOffset": 13440
        },
        {
            "buffer": 0,
            "byteLength": 5760,
            "byteOffset": 19200
        },
        {
            "buffer": 0,
            "byteLength": 5760,
            "byteOffset": 24960
        },
        {
            "buffer": 0,
            "byteLength": 5760,
            "byteOffset": 30720
        },
        {
            "buffer": 0,
            "byteLength": 5760,
            "byteOffset": 36480
        },
        {
            "buffer": 0,
            "byteLength": 1760736,
            "byteOffset": 42240,
            "target": 34963
        },
        {
            "buffer": 0,
            "byteLength": 1090596,
            "byteOffset": 1802976,
            "target": 34962
        },
        {
            "buffer": 0,
            "byteLength": 1090596,
            "byteOffset": 2893572,
            "target": 34962
        },
        {
            "buffer": 0,
            "byteLength": 727064,
            "byteOffset": 3984168,
            "target": 34962
        },
        {
            "buffer": 0,
            "byteLength": 1760736,
            "byteOffset": 4711232,
            "target": 34963
        },
        {
            "buffer": 0,
            "byteLength": 1090596,
            "byteOffset": 6471968,
            "target": 34962
        },
        {
            "buffer": 0,
            "byteLength": 1090596,
            "byteOffset": 7562564,
            "target": 34962
        },
        {
            "buffer": 0,
            "byteLength": 727064,
            "byteOffset": 8653160,
            "target": 34962
        },
        {
            "buffer": 0,
            "byteLength": 1760736,
            "byteOffset": 9380224,
            "target": 34963
        },
        {
            "buffer": 0,
            "byteLength": 1090596,
            "byteOffset": 11140960,
            "target": 34962
        },
        {
            "buffer": 0,
            "byteLength": 1090596,
            "byteOffset": 12231556,
            "target": 34962
        },
        {
            "buffer": 0,
            "byteLength": 727064,
            "byteOffset": 13322152,
            "target": 34962
        },
        {
            "buffer": 0,
            "byteLength": 1760736,
            "byteOffset": 14049216,
            "target": 34963
        },
        {
            "buffer": 0,
            "byteLength": 1090596,
            "byteOffset": 15809952,
            "target": 34962
        },
        {
            "buffer": 0,
            "byteLength": 1090596,
            "byteOffset": 16900548,
            "target": 34962
        },
        {
            "buffer": 0,
            "byteLength": 727064,
            "byteOffset": 17991144,
            "target": 34962
        }
    ],
    "scenes": [
        {
            "name": "Root Scene",
            "nodes": [
                0
            ]
        }
    ],
    "accessors": [
        {
            "componentType": 5126,
            "type": "SCALAR",
            "count": 480,
            "bufferView": 0,
            "byteOffset": 0,
            "min": [
                0.0
            ],
            "max": [
                19.9583339691162
            ]
        },
        {
            "componentType": 5126,
            "type": "VEC3",
            "count": 480,
            "bufferView": 1,
            "byteOffset": 0
        },
        {
            "componentType": 5126,
            "type": "VEC3",
            "count": 480,
            "bufferView": 2,
            "byteOffset": 0
        },
        {
            "componentType": 5126,
            "type": "VEC3",
            "count": 480,
            "bufferView": 3,
            "byteOffset": 0
        },
        {
            "componentType": 5126,
            "type": "VEC3",
            "count": 480,
            "bufferView": 4,
            "byteOffset": 0
        },
        {
            "componentType": 5126,
            "type": "VEC3",
            "count": 480,
            "bufferView": 5,
            "byteOffset": 0
        },
        {
            "componentType": 5126,
            "type": "VEC3",
            "count": 480,
            "bufferView": 6,
            "byteOffset": 0
        },
        {
            "componentType": 5126,
            "type": "VEC3",
            "count": 480,
            "bufferView": 7,
            "byteOffset": 0
        },
        {
            "componentType": 5125,
            "type": "SCALAR",
            "count": 440184,
            "bufferView": 8,
            "byteOffset": 0
        },
        {
            "componentType": 5126,
            "type": "VEC3",
            "count": 90883,
            "bufferView": 9,
            "byteOffset": 0,
            "min": [
                -0.011103019118309,
                0.000169120001373813,
                -0.0505921170115471
            ],
            "max": [
                0.011103019118309,
                0.0487390607595444,
                0.0325472690165043
            ]
        },
        {
            "componentType": 5126,
            "type": "VEC3",
            "count": 90883,
            "bufferView": 10,
            "byteOffset": 0
        },
        {
            "componentType": 5126,
            "type": "VEC2",
            "count": 90883,
            "bufferView": 11,
            "byteOffset": 0
        },
        {
            "componentType": 5125,
            "type": "SCALAR",
            "count": 440184,
            "bufferView": 12,
            "byteOffset": 0
        },
        {
            "componentType": 5126,
            "type": "VEC3",
            "count": 90883,
            "bufferView": 13,
            "byteOffset": 0,
            "min": [
                -0.011103019118309,
                0.000169120001373813,
                -0.0505921170115471
            ],
            "max": [
                0.011103019118309,
                0.0487390607595444,
                0.0325472690165043
            ]
        },
        {
            "componentType": 5126,
            "type": "VEC3",
            "count": 90883,
            "bufferView": 14,
            "byteOffset": 0
        },
        {
            "componentType": 5126,
            "type": "VEC2",
            "count": 90883,
            "bufferView": 15,
            "byteOffset": 0
        },
        {
            "componentType": 5125,
            "type": "SCALAR",
            "count": 440184,
            "bufferView": 16,
            "byteOffset": 0
        },
        {
            "componentType": 5126,
            "type": "VEC3",
            "count": 90883,
            "bufferView": 17,
            "byteOffset": 0,
            "min": [
                -0.011103019118309,
                0.000169120001373813,
                -0.0505921170115471
            ],
            "max": [
                0.011103019118309,
                0.0487390607595444,
                0.0325472690165043
            ]
        },
        {
            "componentType": 5126,
            "type": "VEC3",
            "count": 90883,
            "bufferView": 18,
            "byteOffset": 0
        },
        {
            "componentType": 5126,
            "type": "VEC2",
            "count": 90883,
            "bufferView": 19,
            "byteOffset": 0
        },
        {
            "componentType": 5125,
            "type": "SCALAR",
            "count": 440184,
            "bufferView": 20,
            "byteOffset": 0
        },
        {
            "componentType": 5126,
            "type": "VEC3",
            "count": 90883,
            "bufferView": 21,
            "byteOffset": 0,
            "min": [
                -0.011103019118309,
                0.000169120001373813,
                -0.0505921170115471
            ],
            "max": [
                0.011103019118309,
                0.0487390607595444,
                0.0325472690165043
            ]
        },
        {
            "componentType": 5126,
            "type": "VEC3",
            "count": 90883,
            "bufferView": 22,
            "byteOffset": 0
        },
        {
            "componentType": 5126,
            "type": "VEC2",
            "count": 90883,
            "bufferView": 23,
            "byteOffset": 0
        }
    ],
    "images": [
        {
            "name": "pakitest.png",
            "uri": "pakitest.png"
        }
    ],
    "samplers": [
        {}
    ],
    "textures": [
        {
            "name": "pakitest3:paki3F",
            "sampler": 0,
            "source": 0
        }
    ],
    "materials": [
        {
            "name": "pakitest3:paki3",
            "alphaMode": "OPAQUE",
            "extras": {
                "fromFBX": {
                    "shadingModel": "Phong",
                    "isTruePBR": false
                }
            },
            "pbrMetallicRoughness": {
                "baseColorTexture": {
                    "index": 0,
                    "texCoord": 0
                },
                "baseColorFactor": [
                    0.800000011920929,
                    0.800000011920929,
                    0.800000011920929,
                    1.0
                ],
                "metallicFactor": 0.400000005960464,
                "roughnessFactor": 0.141365930438042
            }
        }
    ],
    "meshes": [
        {
            "name": "pakitest3:Mesh",
            "primitives": [
                {
                    "material": 0,
                    "mode": 4,
                    "attributes": {
                        "NORMAL": 10,
                        "POSITION": 9,
                        "TEXCOORD_0": 11
                    },
                    "indices": 8
                }
            ]
        },
        {
            "name": "Mesh",
            "primitives": [
                {
                    "material": 0,
                    "mode": 4,
                    "attributes": {
                        "NORMAL": 14,
                        "POSITION": 13,
                        "TEXCOORD_0": 15
                    },
                    "indices": 12
                }
            ]
        },
        {
            "name": "Mesh1",
            "primitives": [
                {
                    "material": 0,
                    "mode": 4,
                    "attributes": {
                        "NORMAL": 18,
                        "POSITION": 17,
                        "TEXCOORD_0": 19
                    },
                    "indices": 16
                }
            ]
        },
        {
            "name": "Mesh2",
            "primitives": [
                {
                    "material": 0,
                    "mode": 4,
                    "attributes": {
                        "NORMAL": 22,
                        "POSITION": 21,
                        "TEXCOORD_0": 23
                    },
                    "indices": 20
                }
            ]
        }
    ],
    "animations": [
        {
            "name": "Take 001",
            "channels": [
                {
                    "sampler": 0,
                    "target": {
                        "node": 1,
                        "path": "scale"
                    }
                },
                {
                    "sampler": 1,
                    "target": {
                        "node": 2,
                        "path": "translation"
                    }
                },
                {
                    "sampler": 2,
                    "target": {
                        "node": 2,
                        "path": "scale"
                    }
                },
                {
                    "sampler": 3,
                    "target": {
                        "node": 3,
                        "path": "translation"
                    }
                },
                {
                    "sampler": 4,
                    "target": {
                        "node": 3,
                        "path": "scale"
                    }
                },
                {
                    "sampler": 5,
                    "target": {
                        "node": 4,
                        "path": "translation"
                    }
                },
                {
                    "sampler": 6,
                    "target": {
                        "node": 4,
                        "path": "scale"
                    }
                }
            ],
            "samplers": [
                {
                    "input": 0,
                    "interpolation": "LINEAR",
                    "output": 1
                },
                {
                    "input": 0,
                    "interpolation": "LINEAR",
                    "output": 2
                },
                {
                    "input": 0,
                    "interpolation": "LINEAR",
                    "output": 3
                },
                {
                    "input": 0,
                    "interpolation": "LINEAR",
                    "output": 4
                },
                {
                    "input": 0,
                    "interpolation": "LINEAR",
                    "output": 5
                },
                {
                    "input": 0,
                    "interpolation": "LINEAR",
                    "output": 6
                },
                {
                    "input": 0,
                    "interpolation": "LINEAR",
                    "output": 7
                }
            ]
        }
    ],
    "nodes": [
        {
            "name": "RootNode",
            "translation": [
                0.0,
                0.0,
                0.0
            ],
            "rotation": [
                0.0,
                0.0,
                0.0,
                1.0
            ],
            "scale": [
                1.0,
                1.0,
                1.0
            ],
            "children": [
                1,
                2,
                3,
                4
            ]
        },
        {
            "name": "pakitest3:Mesh",
            "translation": [
                -0.0845347791910172,
                -0.00131690630223602,
                -0.0114731108769774
            ],
            "rotation": [
                0.0,
                0.0,
                0.0,
                1.0
            ],
            "scale": [
                0.955691456794739,
                0.955691456794739,
                1.0
            ],
            "mesh": 0
        },
        {
            "name": "Mesh",
            "translation": [
                -0.0567013919353485,
                -0.00131690630223602,
                -0.0114731108769774
            ],
            "rotation": [
                0.0,
                0.0,
                0.0,
                1.0
            ],
            "scale": [
                0.955691456794739,
                0.955691456794739,
                1.0
            ],
            "mesh": 1
        },
        {
            "name": "Mesh1",
            "translation": [
                -0.0235279463231564,
                -0.00131690630223602,
                -0.0114731108769774
            ],
            "rotation": [
                0.0,
                0.0,
                0.0,
                1.0
            ],
            "scale": [
                0.955691456794739,
                0.955691456794739,
                1.0
            ],
            "mesh": 2
        },
        {
            "name": "Mesh2",
            "translation": [
                -0.0235279463231564,
                -0.00131690630223602,
                -0.0114731108769774
            ],
            "rotation": [
                0.0,
                0.0,
                0.0,
                1.0
            ],
            "scale": [
                0.955691456794739,
                0.955691456794739,
                1.0
            ],
            "mesh": 3
        }
    ]
}