{
  "accessors": [
    {
      "bufferView": 2,
      "componentType": 5126,
      "count": 779,
      "max": [
        148.97006225585938,
        -4.9600105285644531,
        39.286453247070312
      ],
      "min": [
        -148.97006225585938,
        -237.50015258789062,
        -36.4200439453125
      ],
      "type": "VEC3"
    },
    {
      "bufferView": 2,
      "byteOffset": 9348,
      "componentType": 5126,
      "count": 779,
      "max": [
        0.99996316432952881,
        1,
        0.99987947940826416
      ],
      "min": [
        -0.99996316432952881,
        -1,
        -0.99993342161178589
      ],
      "type": "VEC3"
    },
    {
      "bufferView": 3,
      "componentType": 5126,
      "count": 779,
      "max": [
        0.99335414171218872,
        0.99911540746688843,
        0.97040313482284546,
        1
      ],
      "min": [
        -0.99245619773864746,
        -0.99996203184127808,
        -1,
        -1
      ],
      "type": "VEC4"
    },
    {
      "bufferView": 1,
      "componentType": 5126,
      "count": 779,
      "max": [
        0.99049311876296997,
        0.98938643932342529
      ],
      "min": [
        0.0074551105499267578,
        0.0063555771484971046
      ],
      "type": "VEC2"
    },
    {
      "bufferView": 1,
      "byteOffset": 6232,
      "componentType": 5126,
      "count": 779,
      "max": [
        0.99049311876296997,
        0.98938643932342529
      ],
      "min": [
        0.0074551105499267578,
        0.0063555771484971046
      ],
      "type": "VEC2"
    },
    {
      "bufferView": 1,
      "byteOffset": 12464,
      "componentType": 5126,
      "count": 779,
      "max": [
        0.99049311876296997,
        0.98938643932342529
      ],
      "min": [
        0.0074551105499267578,
        0.0063555771484971046
      ],
      "type": "VEC2"
    },
    {
      "bufferView": 0,
      "componentType": 5125,
      "count": 3702,
      "max": [
        778
      ],
      "min": [
        0
      ],
      "type": "SCALAR"
    },
    {
      "bufferView": 2,
      "byteOffset": 18696,
      "componentType": 5126,
      "count": 239,
      "max": [
        34.224906921386719,
        3.9333131313323975,
        40.346057891845703
      ],
      "min": [
        -36.254932403564453,
        -11.363539695739746,
        -21.673160552978516
      ],
      "type": "VEC3"
    },
    {
      "bufferView": 2,
      "byteOffset": 21564,
      "componentType": 5126,
      "count": 239,
      "max": [
        0.99654084444046021,
        0.99999839067459106,
        0.99950289726257324
      ],
      "min": [
        -0.99645942449569702,
        -0.99473810195922852,
        -0.99206405878067017
      ],
      "type": "VEC3"
    },
    {
      "bufferView": 3,
      "byteOffset": 12464,
      "componentType": 5126,
      "count": 239,
      "max": [
        0.98693490028381348,
        0.41571223735809326,
        0.99999845027923584,
        1
      ],
      "min": [
        -0.99715197086334229,
        -0.97917091846466064,
        -0.99785268306732178,
        -1
      ],
      "type": "VEC4"
    },
    {
      "bufferView": 1,
      "byteOffset": 18696,
      "componentType": 5126,
      "count": 239,
      "max": [
        0.44834312796592712,
        0.34115689992904663
      ],
      "min": [
        0.095391258597373962,
        0.22581727802753448
      ],
      "type": "VEC2"
    },
    {
      "bufferView": 1,
      "byteOffset": 20608,
      "componentType": 5126,
      "count": 239,
      "max": [
        0.44834312796592712,
        0.34115689992904663
      ],
      "min": [
        0.095391258597373962,
        0.22581727802753448
      ],
      "type": "VEC2"
    },
    {
      "bufferView": 1,
      "byteOffset": 22520,
      "componentType": 5126,
      "count": 239,
      "max": [
        0.44834312796592712,
        0.34115689992904663
      ],
      "min": [
        0.095391258597373962,
        0.22581727802753448
      ],
      "type": "VEC2"
    },
    {
      "bufferView": 0,
      "byteOffset": 14808,
      "componentType": 5125,
      "count": 1014,
      "max": [
        238
      ],
      "min": [
        0
      ],
      "type": "SCALAR"
    },
    {
      "bufferView": 4,
      "componentType": 5126,
      "count": 91,
      "max": [
        3
      ],
      "min": [
        0
      ],
      "type": "SCALAR"
    },
    {
      "bufferView": 6,
      "componentType": 5126,
      "count": 91,
      "max": [
        3.3445191779920592e-37,
        0.02431894838809967,
        0,
        1
      ],
      "min": [
        -2.760183547770222e-37,
        -0.0057498635724186897,
        -4.815173261881639e-35,
        0.99970424175262451
      ],
      "type": "VEC4"
    },
    {
      "bufferView": 4,
      "byteOffset": 364,
      "componentType": 5126,
      "count": 91,
      "max": [
        3
      ],
      "min": [
        0
      ],
      "type": "SCALAR"
    },
    {
      "bufferView": 6,
      "byteOffset": 1456,
      "componentType": 5126,
      "count": 91,
      "max": [
        8.3644933675280686e-17,
        0.99452191591262817,
        8.3644933675280686e-17,
        1
      ],
      "min": [
        -8.6476928777421335e-17,
        -0.86602538824081421,
        -8.6476928777421335e-17,
        -0.5
      ],
      "type": "VEC4"
    },
    {
      "bufferView": 4,
      "byteOffset": 728,
      "componentType": 5126,
      "count": 82,
      "max": [
        2.7000000476837158
      ],
      "min": [
        0
      ],
      "type": "SCALAR"
    },
    {
      "bufferView": 5,
      "componentType": 5126,
      "count": 82,
      "max": [
        0,
        8.9161891937255859,
        -5.3631658554077148
      ],
      "min": [
        0,
        3.931570291519165,
        -5.3631668090820312
      ],
      "type": "VEC3"
    }
  ],
  "animations": [
    {
      "channels": [
        {
          "sampler": 0,
          "target": {
            "node": 6,
            "path": "rotation"
          }
        },
        {
          "sampler": 1,
          "target": {
            "node": 8,
            "path": "rotation"
          }
        },
        {
          "sampler": 2,
          "target": {
            "node": 5,
            "path": "translation"
          }
        }
      ],
      "name": "Take 001",
      "samplers": [
        {
          "input": 14,
          "interpolation": "LINEAR",
          "output": 15
        },
        {
          "input": 16,
          "interpolation": "LINEAR",
          "output": 17
        },
        {
          "input": 18,
          "interpolation": "LINEAR",
          "output": 19
        }
      ]
    }
  ],
  "asset": {
    "extras": {
      "author": "miluwuuu (https://sketchfab.com/miluwuuu)",
      "license": "CC-BY-4.0 (http://creativecommons.org/licenses/by/4.0/)",
      "source": "https://sketchfab.com/3d-models/a6m5-zero-d8465f8f59904567830629dbd87d4bb0",
      "title": "A6M5 zero"
    },
    "generator": "Sketchfab-6.50.0",
    "version": "2.0"
  },
  "bufferViews": [
    {
      "buffer": 0,
      "byteLength": 18864,
      "byteOffset": 0,
      "name": "floatBufferViews",
      "target": 34963
    },
    {
      "buffer": 0,
      "byteLength": 24432,
      "byteOffset": 18864,
      "byteStride": 8,
      "name": "floatBufferViews",
      "target": 34962
    },
    {
      "buffer": 0,
      "byteLength": 24432,
      "byteOffset": 43296,
      "byteStride": 12,
      "name": "floatBufferViews",
      "target": 34962
    },
    {
      "buffer": 0,
      "byteLength": 16288,
      "byteOffset": 67728,
      "byteStride": 16,
      "name": "floatBufferViews",
      "target": 34962
    },
    {
      "buffer": 0,
      "byteLength": 1056,
      "byteOffset": 84016,
      "name": "floatBufferViews"
    },
    {
      "buffer": 0,
      "byteLength": 984,
      "byteOffset": 85072,
      "byteStride": 12,
      "name": "floatBufferViews"
    },
    {
      "buffer": 0,
      "byteLength": 2912,
      "byteOffset": 86056,
      "byteStride": 16,
      "name": "floatBufferViews"
    }
  ],
  "buffers": [
    {
      "byteLength": 88968,
      "uri": "scene.bin"
    }
  ],
  "images": [
    {
      "uri": "textures/Material_26_baseColor.png"
    },
    {
      "uri": "textures/Material_26_normal.png"
    }
  ],
  "materials": [
    {
      "alphaMode": "BLEND",
      "doubleSided": true,
      "name": "Material_26",
      "normalTexture": {
        "index": 1,
        "scale": 1,
        "texCoord": 0
      },
      "pbrMetallicRoughness": {
        "baseColorFactor": [
          1,
          1,
          1,
          1
        ],
        "baseColorTexture": {
          "index": 0,
          "texCoord": 0
        },
        "metallicFactor": 0,
        "roughnessFactor": 0.59999999999999998
      }
    }
  ],
  "meshes": [
    {
      "name": "body_Material #26_0",
      "primitives": [
        {
          "attributes": {
            "NORMAL": 1,
            "POSITION": 0,
            "TANGENT": 2,
            "TEXCOORD_0": 3,
            "TEXCOORD_1": 4,
            "TEXCOORD_2": 5
          },
          "indices": 6,
          "material": 0,
          "mode": 4
        }
      ]
    },
    {
      "name": "propeller_Material #26_0",
      "primitives": [
        {
          "attributes": {
            "NORMAL": 8,
            "POSITION": 7,
            "TANGENT": 9,
            "TEXCOORD_0": 10,
            "TEXCOORD_1": 11,
            "TEXCOORD_2": 12
          },
          "indices": 13,
          "material": 0,
          "mode": 4
        }
      ]
    }
  ],
  "nodes": [
    {
      "children": [
        1
      ],
      "name": "RootNode (gltf orientation matrix)",
      "rotation": [
        -0.70710678118654746,
        -0,
        -0,
        0.70710678118654757
      ]
    },
    {
      "children": [
        2
      ],
      "name": "RootNode (model correction matrix)"
    },
    {
      "children": [
        3
      ],
      "matrix": [
        1,
        0,
        0,
        0,
        0,
        0,
        1,
        0,
        0,
        -1,
        0,
        0,
        0,
        0,
        0,
        1
      ],
      "name": "bd091e33fd04480480655700f9eb4bf7.fbx"
    },
    {
      "children": [
        4
      ],
      "name": ""
    },
    {
      "children": [
        5
      ],
      "name": "RootNode"
    },
    {
      "children": [
        6,
        8
      ],
      "name": "A6M5",
      "rotation": [
        -0.7071068286895752,
        -0,
        0,
        0.7071068286895752
      ],
      "translation": [
        0,
        6.9279079437255859,
        -5.3631668090820312
      ]
    },
    {
      "children": [
        7
      ],
      "name": "body",
      "rotation": [
        0,
        9.3132251910432728e-10,
        0,
        1
      ],
      "translation": [
        0,
        116.11060333251953,
        -1.963007926940918
      ]
    },
    {
      "mesh": 0,
      "name": "body_Material #26_0"
    },
    {
      "children": [
        9
      ],
      "name": "propeller",
      "rotation": [
        0,
        -1.1920930376163597e-07,
        0,
        1
      ],
      "translation": [
        0,
        116.11060333251953,
        -1.963007926940918
      ]
    },
    {
      "mesh": 1,
      "name": "propeller_Material #26_0"
    }
  ],
  "samplers": [
    {
      "magFilter": 9729,
      "minFilter": 9987,
      "wrapS": 10497,
      "wrapT": 10497
    }
  ],
  "scene": 0,
  "scenes": [
    {
      "name": "OSG_Scene",
      "nodes": [
        0
      ]
    }
  ],
  "textures": [
    {
      "sampler": 0,
      "source": 0
    },
    {
      "sampler": 0,
      "source": 1
    }
  ]
}

