{
  "accessors": [
    {
      "bufferView": 2,
      "componentType": 5126,
      "count": 3972,
      "max": [
        1.5145399570465088,
        1.0405559539794922,
        -6.2395200729370117
      ],
      "min": [
        -1.1634030342102051,
        -0.93997699022293091,
        -7.0857539176940918
      ],
      "type": "VEC3"
    },
    {
      "bufferView": 2,
      "byteOffset": 47664,
      "componentType": 5126,
      "count": 3972,
      "max": [
        0.99868154525756836,
        0.98987478017807007,
        0.99994027614593506
      ],
      "min": [
        -0.99289745092391968,
        -0.99998313188552856,
        -0.86341416835784912
      ],
      "type": "VEC3"
    },
    {
      "bufferView": 3,
      "componentType": 5126,
      "count": 3972,
      "max": [
        0.99997407197952271,
        0.90009278059005737,
        0.99172544479370117,
        1
      ],
      "min": [
        -0.97738385200500488,
        -0.85681581497192383,
        -0.99936568737030029,
        -1
      ],
      "type": "VEC4"
    },
    {
      "bufferView": 1,
      "componentType": 5126,
      "count": 3972,
      "max": [
        0.98464781045913696,
        0.91440176963806152
      ],
      "min": [
        0.014771446585655212,
        0.076163060963153839
      ],
      "type": "VEC2"
    },
    {
      "bufferView": 0,
      "componentType": 5125,
      "count": 22851,
      "max": [
        3971
      ],
      "min": [
        0
      ],
      "type": "SCALAR"
    }
  ],
  "asset": {
    "extras": {
      "author": "Aliosa (https://sketchfab.com/aliosa123)",
      "license": "CC-BY-4.0 (http://creativecommons.org/licenses/by/4.0/)",
      "source": "https://sketchfab.com/3d-models/roman-decorated-plaque-24489403a4d14aa9a78dae91a672826c",
      "title": "Roman decorated plaque"
    },
    "generator": "Sketchfab-7.75.0",
    "version": "2.0"
  },
  "bufferViews": [
    {
      "buffer": 0,
      "byteLength": 91404,
      "byteOffset": 0,
      "name": "floatBufferViews",
      "target": 34963
    },
    {
      "buffer": 0,
      "byteLength": 31776,
      "byteOffset": 91404,
      "byteStride": 8,
      "name": "floatBufferViews",
      "target": 34962
    },
    {
      "buffer": 0,
      "byteLength": 95328,
      "byteOffset": 123180,
      "byteStride": 12,
      "name": "floatBufferViews",
      "target": 34962
    },
    {
      "buffer": 0,
      "byteLength": 63552,
      "byteOffset": 218508,
      "byteStride": 16,
      "name": "floatBufferViews",
      "target": 34962
    }
  ],
  "buffers": [
    {
      "byteLength": 282060,
      "uri": "scene.bin"
    }
  ],
  "images": [
    {
      "uri": "textures/default_baseColor.jpeg"
    },
    {
      "uri": "textures/default_metallicRoughness.png"
    },
    {
      "uri": "textures/default_normal.png"
    }
  ],
  "materials": [
    {
      "doubleSided": true,
      "emissiveFactor": [
        0,
        0,
        0
      ],
      "name": "default",
      "normalTexture": {
        "index": 2,
        "scale": 1,
        "texCoord": 0
      },
      "occlusionTexture": {
        "index": 1,
        "strength": 0.8256813865,
        "texCoord": 0
      },
      "pbrMetallicRoughness": {
        "baseColorFactor": [
          1,
          1,
          1,
          1
        ],
        "baseColorTexture": {
          "index": 0,
          "texCoord": 0
        },
        "metallicFactor": 1,
        "metallicRoughnessTexture": {
          "index": 1,
          "texCoord": 0
        },
        "roughnessFactor": 0.95146755000000005
      }
    }
  ],
  "meshes": [
    {
      "name": "lowPolyStone_default_0",
      "primitives": [
        {
          "attributes": {
            "NORMAL": 1,
            "POSITION": 0,
            "TANGENT": 2,
            "TEXCOORD_0": 3
          },
          "indices": 4,
          "material": 0,
          "mode": 4
        }
      ]
    }
  ],
  "nodes": [
    {
      "children": [
        1
      ],
      "name": "RootNode (gltf orientation matrix)",
      "rotation": [
        -0.70710678118654746,
        -0,
        -0,
        0.70710678118654757
      ]
    },
    {
      "children": [
        2
      ],
      "matrix": [
        1,
        0,
        0,
        0,
        0,
        1,
        0,
        0,
        0,
        0,
        1,
        0,
        0.14797063171863556,
        -0.076495110988616943,
        -0.037969067692756653,
        1
      ],
      "name": "RootNode (model correction matrix)"
    },
    {
      "children": [
        3
      ],
      "matrix": [
        1,
        0,
        0,
        0,
        0,
        0,
        1,
        0,
        0,
        -1,
        0,
        0,
        0,
        0,
        0,
        1
      ],
      "name": "c692c46d709b45d2b2b557c9db39261a.fbx"
    },
    {
      "children": [
        4
      ],
      "name": "RootNode"
    },
    {
      "children": [
        5
      ],
      "matrix": [
        1,
        0,
        0,
        0,
        0,
        2.2204460492503131e-16,
        -1,
        0,
        0,
        1,
        2.2204460492503131e-16,
        0,
        0.29189318418502808,
        6.6506400108337402,
        0.043857969343662262,
        1
      ],
      "name": "lowPolyStone"
    },
    {
      "children": [
        6
      ],
      "matrix": [
        7.2053125926556056,
        -1.3329864518817567,
        -0.1357945977109056,
        0,
        0.23234537096678567,
        0.51150783449624704,
        7.3072716483894107,
        0,
        -1.319586393591679,
        -7.1884154109175773,
        0.54514609311365714,
        0,
        -10.550165176391602,
        -46.464431762695312,
        3.7641701698303223,
        1
      ],
      "name": ""
    },
    {
      "mesh": 0,
      "name": "lowPolyStone_default_0"
    }
  ],
  "samplers": [
    {
      "magFilter": 9729,
      "minFilter": 9987,
      "wrapS": 10497,
      "wrapT": 10497
    }
  ],
  "scene": 0,
  "scenes": [
    {
      "name": "OSG_Scene",
      "nodes": [
        0
      ]
    }
  ],
  "textures": [
    {
      "sampler": 0,
      "source": 0
    },
    {
      "sampler": 0,
      "source": 1
    },
    {
      "sampler": 0,
      "source": 2
    }
  ]
}

